<svg width="16" height="10" viewBox="0 0 16 10" fill="none" xmlns="http://www.w3.org/2000/svg">
<path d="M8.44492 9.50614C8.24844 9.50728 8.05368 9.46944 7.87179 9.39479C7.6899 9.32015 7.52446 9.21016 7.38497 9.07114L1.41341 3.07114C1.27422 2.93128 1.1638 2.76524 1.08847 2.58251C1.01314 2.39978 0.974365 2.20393 0.974365 2.00614C0.974365 1.80835 1.01314 1.6125 1.08847 1.42976C1.1638 1.24703 1.27422 1.08099 1.41341 0.941137C1.55261 0.801279 1.71785 0.690337 1.89972 0.614647C2.08159 0.538956 2.27651 0.5 2.47336 0.5C2.67021 0.5 2.86514 0.538956 3.047 0.614647C3.22887 0.690337 3.39412 0.801279 3.53331 0.941137L8.44492 5.90614L13.3714 1.13614C13.5088 0.982702 13.6761 0.859389 13.8631 0.77391C14.05 0.688431 14.2525 0.642625 14.4578 0.639356C14.6632 0.636087 14.867 0.675425 15.0565 0.754911C15.2461 0.834398 15.4172 0.952323 15.5593 1.10131C15.7014 1.2503 15.8114 1.42714 15.8824 1.62078C15.9534 1.81442 15.9838 2.0207 15.9718 2.2267C15.9598 2.4327 15.9057 2.63401 15.8127 2.81802C15.7198 3.00204 15.59 3.1648 15.4316 3.29614L9.46008 9.08614C9.18707 9.35061 8.82411 9.50077 8.44492 9.50614Z" fill="#111111" fill-opacity="0.48"/>
</svg>
