<svg width="512" height="320" viewBox="0 0 512 320" fill="none" xmlns="http://www.w3.org/2000/svg">
<path d="M32 0H480C497.672 0 512 14.3281 512 32C512 49.6719 497.672 64 480 64H32C14.3281 64 0 49.6719 0 32C0 14.3281 14.3281 0 32 0Z" fill="#0C0C0C"/>
<path d="M32 128H480C497.672 128 512 142.328 512 160C512 177.672 497.672 192 480 192H32C14.3281 192 0 177.672 0 160C0 142.328 14.3281 128 32 128Z" fill="#0C0C0C"/>
<path d="M32 256H480C497.672 256 512 270.328 512 288C512 305.672 497.672 320 480 320H32C14.3281 320 0 305.672 0 288C0 270.328 14.3281 256 32 256Z" fill="#0C0C0C"/>
</svg>
